{"title":"[ShepardTDS] Noragami Dual Audio [720p 8-bit x265 HEVC] 1-12+OVA","uid":12765051,"size":2486888517,"categoryP":"video","categoryS":"tv_shows","magnet":"?xt=urn:btih:e2e062f8bbbfed49b141cff3b71b3e0e63e42572&amp;dn=%5BShepardTDS%5D+Noragami+Dual+Audio+%5B720p+8-bit+x265+HEVC%5D+1-12%2BOVA&amp;tr=udp%3A%2F%2Ftracker.leechers-paradise.org%3A6969&amp;tr=udp%3A%2F%2Fzer0day.ch%3A1337&amp;tr=udp%3A%2F%2Fopen.demonii.com%3A1337&amp;tr=udp%3A%2F%2Ftracker.coppersurfer.tk%3A6969&amp;tr=udp%3A%2F%2Fexodus.desync.com%3A6969","seeders":0,"leechers":1,"uploader":"ShepardTDS","files":17,"time":1447591219,"description":"Constant Quality encoding.\r\nVariable Bit rates\r\nED and OP included\r\nBlu-Ray Source\r\nBoth OVAs HardSubbed and in 480p\r\n\r\n\r\nGeneral\r\n\r\nFormat : Matroska\r\nFile size : 165 MiB-206 MiB\r\nDuration : 24mn 14s\r\nOverall bit rate : 955 Kbps-1,191 Kbps\r\nEncoded date : UTC 2015-11-07 18:37:14\r\nWriting application : mkvmerge v7.7.0 ('Six Voices') 32bit built on Feb 28 2015 23:23:00\r\nWriting library : libebml v1.3.1 + libmatroska v1.4.2\r\n\r\nVideo\r\nID : 1\r\nFormat : V_MPEGH/ISO/HEVC\r\nCodec ID : V_MPEGH/ISO/HEVC\r\nDuration : 24mn 13s\r\nBit rate : 552 Kbps-783 Kbps\r\nWidth : 1 280 pixels\r\nHeight : 720 pixels\r\nDisplay aspect ratio : 16:9\r\nFrame rate : 23.976 fps\r\nBits/(Pixel*Frame) : 0.025\r\nStream size : 95.6 MiB (58%)\r\n\r\nAudio #1\r\nID : 2\r\nFormat : AC-3\r\nFormat/Info : Audio Coding 3\r\nMode extension : CM (complete main)\r\nCodec ID : A_AC3\r\nDuration : 24mn 14s\r\nBit rate mode : Constant\r\nBit rate : 192 Kbps\r\nChannel(s) : 6 channels\r\nChannel positions : Front: L C R, Side: L R, LFE\r\nSampling rate : 48.0 KHz\r\nBit depth : 16 bits\r\nCompression mode : Lossy\r\nStream size : 33.3 MiB (20%)\r\nLanguage : English\r\n\r\nAudio #2\r\nID : 3\r\nFormat : AC-3\r\nFormat/Info : Audio Coding 3\r\nMode extension : CM (complete main)\r\nCodec ID : A_AC3\r\nDuration : 24mn 14s\r\nBit rate mode : Constant\r\nBit rate : 192 Kbps\r\nChannel(s) : 2 channels\r\nChannel positions : Front: L R\r\nSampling rate : 48.0 KHz\r\nBit depth : 16 bits\r\nCompression mode : Lossy\r\nStream size : 33.3 MiB (20%)\r\nLanguage : Japanese\r\n\r\nText #1\r\nID : 4\r\nFormat : ASS\r\nCodec ID : S_TEXT/ASS\r\nCodec ID/Info : Advanced Sub Station Alpha\r\nCompression mode : Lossless\r\nTitle : English Signs/Songs\r\nLanguage : English\r\n\r\nText #2\r\nID : 5\r\nFormat : ASS\r\nCodec ID : S_TEXT/ASS\r\nCodec ID/Info : Advanced Sub Station Alpha\r\nCompression mode : Lossless\r\nTitle : English Subtitles\r\nLanguage : English\r\n\r\nMenu\r\n00:00:00.000 : en:Prologue\r\n00:00:49.049 : en:Opening\r\n00:02:19.014 : en:Part A\r\n00:12:06.977 : en:Part B\r\n00:22:25.011 : en:Ending\r\n00:23:57.979 : en:Preview\r\n\r\nOVA\r\n\r\nGeneral\r\n\r\nFormat : MPEG-4\r\nFormat profile : Base Media / Version 2\r\nCodec ID : mp42\r\nFile size : 62.6 MiB\r\nDuration : 23mn 58s\r\nOverall bit rate : 365 Kbps\r\nMovie name : Noragami OVA - 01 ?L@?BerT?\r\nGenre : Anime\r\nRecorded date : 2014\r\nEncoded date : UTC 2014-09-10 19:12:53\r\nTagged date : UTC 2014-09-10 20:15:42\r\nWriting application : HandBrake 0.9.9 2013052900\r\nXtra : WM/EncodedBy\r\n\r\nVideo\r\nID : 1\r\nFormat : AVC\r\nFormat/Info : Advanced Video Codec\r\nFormat profile :   \r\nFormat settings, CABAC : Yes\r\nFormat settings, ReFrames : 16 frames\r\nCodec ID : avc1\r\nCodec ID/Info : Advanced Video Coding\r\nDuration : 23mn 58s\r\nBit rate mode : Variable\r\nBit rate : 280 Kbps\r\nWidth : 848 pixels\r\nHeight : 480 pixels\r\nDisplay aspect ratio : 16:9\r\nFrame rate mode : Variable\r\nFrame rate : 23.976 fps\r\nMinimum frame rate : 11.989 fps\r\nMaximum frame rate : 23.981 fps\r\nColor space : YUV\r\nChroma subsampling : 4:2:0\r\nBit depth : 8 bits\r\nScan type : Progressive\r\nBits/(Pixel*Frame) : 0.029\r\nStream size : 48.0 MiB (77%)\r\nWriting library : x264 core 130 r2273 b3065e6\r\nEncoded date : UTC 2014-09-10 19:12:53\r\nTagged date : UTC 2014-09-10 20:15:42\r\nColor primaries : BT.601-6 525, BT.1358 525, BT.1700 NTSC, SMPTE 170M\r\nTransfer characteristics : BT.709-5, BT.1361\r\nMatrix coefficients : BT.601-6 525, BT.1358 525, BT.1700 NTSC, SMPTE 170M\r\n\r\nAudio\r\nID : 2\r\nFormat : AAC\r\nFormat/Info : Advanced Audio Codec\r\nFormat profile : LC\r\nCodec ID : 40\r\nDuration : 23mn 58s\r\nBit rate mode : Variable\r\nBit rate : 80.0 Kbps\r\nMaximum bit rate : 129 Kbps\r\nChannel(s) : 2 channels\r\nChannel positions : Front: L R\r\nSampling rate : 44.1 KHz\r\nCompression mode : Lossy\r\nStream size : 13.7 MiB (22%)\r\nEncoded date : UTC 2014-09-10 19:12:53\r\nTagged date : UTC 2014-09-10 20:15:42","torrent":{"xt":"urn:btih:e2e062f8bbbfed49b141cff3b71b3e0e63e42572","amp;dn":"%5BShepardTDS%5D+Noragami+Dual+Audio+%5B720p+8-bit+x265+HEVC%5D+1-12%2BOVA","amp;tr":["udp%3A%2F%2Ftracker.leechers-paradise.org%3A6969","udp%3A%2F%2Fzer0day.ch%3A1337","udp%3A%2F%2Fopen.demonii.com%3A1337","udp%3A%2F%2Ftracker.coppersurfer.tk%3A6969","udp%3A%2F%2Fexodus.desync.com%3A6969"],"infoHash":"e2e062f8bbbfed49b141cff3b71b3e0e63e42572","infoHashBuffer":{"type":"Buffer","data":[226,224,98,248,187,191,237,73,177,65,207,243,183,27,62,14,99,228,37,114]},"announce":[],"urlList":[]}}